<?xml version="1.0" encoding="UTF-8"?>
<svg width="26px" height="29px" viewBox="0 0 26 29" version="1.1" xmlns="http://www.w3.org/2000/svg" xmlns:xlink="http://www.w3.org/1999/xlink">
    <!-- Generator: Sketch 47.1 (45422) - http://www.bohemiancoding.com/sketch -->
    <title>icon/calendar-icon</title>
    <desc>Created with Sketch.</desc>
    <defs></defs>
    <g id="wire-frame" stroke="none" stroke-width="1" fill="none" fill-rule="evenodd">
        <g id="icons" transform="translate(-382.000000, -1.000000)" fill="#A4A4A4">
            <g id="icon/calendar" transform="translate(382.160000, 0.000000)">
                <g id="calendar-icon" transform="translate(0.000000, 0.134783)">
                    <g id="Group-3" transform="translate(1.368421, 1.213043)">
                        <path d="M3.29263829,-1.08608774e-15 L6.9705196,-1.08608774e-15 L6.9705196,-7.77156117e-15 C7.15151768,-7.80480998e-15 7.29824561,0.146727934 7.29824561,0.327726013 L7.29824561,2.36792616 L7.29824561,2.36792616 C7.29824561,2.54892424 7.15151768,2.69565217 6.9705196,2.69565217 L3.29263829,2.69565217 C3.11164021,2.69565217 2.96491228,2.54892424 2.96491228,2.36792616 L2.96491228,0.327726013 L2.96491228,0.327726013 C2.96491228,0.146727934 3.11164021,-9.10440763e-16 3.29263829,-9.43689571e-16 L3.29263829,-1.08608774e-15 Z M16.2926383,-4.59535791e-16 L19.9705196,-4.59535791e-16 L19.9705196,-6.43929354e-15 C20.1515177,-6.47254235e-15 20.2982456,0.146727934 20.2982456,0.327726013 L20.2982456,2.36792616 L20.2982456,2.36792616 C20.2982456,2.54892424 20.1515177,2.69565217 19.9705196,2.69565217 L16.2926383,2.69565217 C16.1116402,2.69565217 15.9649123,2.54892424 15.9649123,2.36792616 L15.9649123,0.327726013 C15.9649123,0.146727934 16.1116402,-3.55329251e-16 16.2926383,-3.88578059e-16 L16.2926383,-4.59535791e-16 Z M0,4.04347826 L23.2631579,4.04347826 L23.2631579,8.08695652 L0,8.08695652 L0,4.04347826 Z" id="Combined-Shape"></path>
                    </g>
                    <rect id="Rectangle-4" x="14.5204678" y="18.1956522" width="5.77777778" height="5.66086957" rx="0.5735205"></rect>
                    <path d="M3.13927011,5.93043478 C2.53913622,5.93043478 2.05263158,6.40961745 2.05263158,7.00071922 L2.05263158,26.5601503 C2.05263158,27.1512521 2.53913622,27.6304348 3.13927011,27.6304348 L22.8607299,27.6304348 C23.4608638,27.6304348 23.9473684,27.1512521 23.9473684,26.5601503 L23.9473684,7.00071922 C23.9473684,6.40961745 23.4608638,5.93043478 22.8607299,5.93043478 L3.13927011,5.93043478 Z M3.13927011,3.90869565 L22.8607299,3.90869565 C24.5945009,3.90869565 26,5.29304176 26,7.00071922 L26,26.5601503 C26,28.2678278 24.5945009,29.6521739 22.8607299,29.6521739 L3.13927011,29.6521739 C1.4054991,29.6521739 2.12325711e-16,28.2678278 0,26.5601503 L0,7.00071922 C-2.12325711e-16,5.29304176 1.4054991,3.90869565 3.13927011,3.90869565 Z" id="Rectangle" fill-rule="nonzero"></path>
                </g>
            </g>
        </g>
    </g>
</svg>