<?xml version="1.0" encoding="UTF-8"?>
<svg width="28px" height="29px" viewBox="0 0 28 29" version="1.1" xmlns="http://www.w3.org/2000/svg" xmlns:xlink="http://www.w3.org/1999/xlink">
    <!-- Generator: Sketch 47.1 (45422) - http://www.bohemiancoding.com/sketch -->
    <title>icon/map-icon</title>
    <desc>Created with Sketch.</desc>
    <defs>
        <polygon id="path-1" points="8.66666667 1.42105263 10.1111111 2.84210526 10.1111111 24.1578947 8.66666667 24.1578947"></polygon>
        <polygon id="path-2" points="17.3333333 4.26315789 18.7777778 4.26315789 18.7777778 27 17.3333333 25.5789474"></polygon>
    </defs>
    <g id="wire-frame" stroke="none" stroke-width="1" fill="none" fill-rule="evenodd">
        <g id="icons" transform="translate(-188.000000, -2.000000)">
            <g id="icon/map" transform="translate(189.040000, 2.695652)">
                <g id="map-icon">
                    <g id="Rectangle-5">
                        <use fill="#D8D8D8" fill-rule="evenodd" xlink:href="#path-1"></use>
                        <path stroke="#A4A4A4" stroke-width="1.5" d="M8.14068333,1.95569413 L9.58512778,3.37674676 L9.36111111,2.84210526 L9.36111111,24.1578947 L10.1111111,23.4078947 L8.66666667,23.4078947 L9.41666667,24.1578947 L9.41666667,1.42105263 L8.14068333,1.95569413 Z"></path>
                    </g>
                    <g id="Rectangle-5">
                        <use fill="#D8D8D8" fill-rule="evenodd" xlink:href="#path-2"></use>
                        <path stroke="#A4A4A4" stroke-width="1.5" d="M17.3333333,5.01315789 L18.7777778,5.01315789 L18.0277778,4.26315789 L18.0277778,27 L19.3037611,26.4653585 L17.8593167,25.0443059 L18.0833333,25.5789474 L18.0833333,4.26315789 L17.3333333,5.01315789 Z"></path>
                    </g>
                    <path d="M0,25.5706035 L0,5.0168165 L4.4408921e-16,5.0168165 C3.89024099e-16,4.56717575 0.288881067,4.16842362 0.7161346,4.02831214 L8.36580701,1.51971511 L8.36580701,1.51971511 C8.56193858,1.45539666 8.77277034,1.45087703 8.97147807,1.50673126 L18.3500629,4.14293266 L18.3500629,4.14293266 C18.6232697,4.21972762 18.9159909,4.18157301 19.1603841,4.03731171 L24.4308844,0.926222881 L24.4308844,0.926222881 C24.9256583,0.634166101 25.5635105,0.798500741 25.8555673,1.29327457 C25.9501241,1.45346336 26,1.63607556 26,1.82209015 L26,23.4872569 L26,23.4872569 C26,23.9166701 25.7361551,24.3019576 25.3357848,24.4571972 L19.0992477,26.8753532 L19.0992477,26.8753532 C18.8905172,26.9562864 18.6612469,26.9677259 18.4454968,26.9079724 L8.96732472,24.2829237 L8.96732472,24.2829237 C8.77120067,24.2286058 8.56345188,24.2330047 8.3698029,24.295576 L1.36015568,26.5605108 L1.36015568,26.5605108 C0.813444988,26.7371623 0.227044132,26.4371699 0.0503927158,25.8904592 C0.0170034943,25.7871244 -1.48273176e-15,25.6791988 -1.11022302e-15,25.5706035 Z" id="Path-5" stroke="#A4A4A4" stroke-width="1.56045"></path>
                </g>
            </g>
        </g>
    </g>
</svg>
