<?xml version="1.0" encoding="UTF-8"?>
<svg width="21px" height="21px" viewBox="0 0 21 21" version="1.1" xmlns="http://www.w3.org/2000/svg" xmlns:xlink="http://www.w3.org/1999/xlink">
    <!-- Generator: Sketch 47.1 (45422) - http://www.bohemiancoding.com/sketch -->
    <title>icon/map-icon</title>
    <desc>Created with Sketch.</desc>
    <defs>
        <polygon id="path-1" points="6.33333333 1.05263158 7.38888889 2.10526316 7.38888889 17.8947368 6.33333333 17.8947368"></polygon>
        <polygon id="path-2" points="12.6666667 3.15789474 13.7222222 3.15789474 13.7222222 20 12.6666667 18.9473684"></polygon>
    </defs>
    <g id="wire-frame" stroke="none" stroke-width="1" fill="none" fill-rule="evenodd">
        <g id="Home-Screen" transform="translate(-176.000000, -777.000000)">
            <g id="user-profile">
                <g id="bottom-navbar" transform="translate(0.000000, 760.000000)">
                    <g id="icons" transform="translate(38.000000, 15.000000)">
                        <g id="icon/map" transform="translate(139.000000, 2.000000)">
                            <g id="map-icon">
                                <g id="Rectangle-5">
                                    <use fill="#D8D8D8" fill-rule="evenodd" xlink:href="#path-1"></use>
                                    <path stroke="#A4A4A4" stroke-width="1.5" d="M6.63888889,2.41653285 L6.63888889,17.8947368 L7.38888889,17.1447368 L6.33333333,17.1447368 L7.08333333,17.8947368 L7.08333333,1.05263158 L5.8037393,1.5836967 L6.63888889,2.41653285 Z"></path>
                                </g>
                                <g id="Rectangle-5">
                                    <use fill="#D8D8D8" fill-rule="evenodd" xlink:href="#path-2"></use>
                                    <path stroke="#A4A4A4" stroke-width="1.5" d="M13.4166667,3.90789474 L13.7222222,3.90789474 L12.9722222,3.15789474 L12.9722222,20 L14.2518163,19.4689349 L13.4166667,18.6360987 L13.4166667,3.15789474 L12.6666667,3.90789474 L13.4166667,3.90789474 Z"></path>
                                </g>
                                <path d="M0,18.5645979 L0,3.90835775 L0,3.90835775 C-5.48758189e-17,3.46026268 0.286930799,3.06251608 0.712148747,2.92116939 L6.02877822,1.15386874 L6.02877822,1.15386874 C6.22720094,1.08791105 6.44089495,1.08327834 6.64198972,1.14057483 L13.2893045,3.03454658 L13.2893045,3.03454658 C13.5655404,3.1132525 13.8620253,3.07424525 14.1085033,2.92676813 L17.4255614,0.942046343 L17.4255614,0.942046343 C17.9185881,0.64704976 18.5574072,0.807584886 18.8524038,1.30061158 C18.9489914,1.46203811 19,1.64663398 19,1.83475015 L19,17.2167749 L19,17.2167749 C19,17.6444441 18.7382642,18.0285402 18.340234,18.1849783 L14.0474731,19.8721663 L14.0474731,19.8721663 C13.836434,19.9551112 13.6040733,19.9668313 13.3857592,19.9055426 L6.63779236,18.0111426 L6.63779236,18.0111426 C6.43930362,17.9554196 6.22873378,17.9599289 6.03281253,18.0240982 L1.36409993,19.5532221 L1.36409993,19.5532221 C0.818097887,19.7320518 0.230505617,19.4343999 0.0516758559,18.8883978 C0.0174418959,18.7838749 4.57558659e-16,18.6745843 4.4408921e-16,18.5645979 Z" id="Path-5" stroke="#A4A4A4" stroke-width="1.56045"></path>
                            </g>
                        </g>
                    </g>
                </g>
            </g>
        </g>
    </g>
</svg>