<?xml version="1.0" encoding="UTF-8"?>
<svg width="108px" height="73px" viewBox="0 0 108 73" version="1.1" xmlns="http://www.w3.org/2000/svg" xmlns:xlink="http://www.w3.org/1999/xlink">
    <!-- Generator: Sketch 47.1 (45422) - http://www.bohemiancoding.com/sketch -->
    <title>art</title>
    <desc>Created with Sketch.</desc>
    <defs></defs>
    <g id="Screens" stroke="none" stroke-width="1" fill="none" fill-rule="evenodd">
        <g id="Event-(-show-menu-)" transform="translate(-76.000000, -455.000000)">
            <g id="art" transform="translate(76.000000, 455.000000)">
                <path d="M107.316355,57.6016454 C79.2096663,75.3215949 43.9507702,77.981121 13.33,64.35 C8.88902287,62.3731387 4.59340307,60.0764913 0.486985303,57.476921 L41.9140737,0.457425412 C49.4573407,3.78046252 58.1377432,3.88766024 65.8694546,0.554840909 L107.316375,57.6016327 Z" id="Combined-Shape" fill="#FF9D54"></path>
                <path d="M53,31 C48.03,31 44,35.03 44,40 C44,44.97 48.03,49 53,49 C53.83,49 54.5,48.33 54.5,47.5 C54.5,47.11 54.35,46.76 54.11,46.49 C53.88,46.23 53.73,45.88 53.73,45.5 C53.73,44.67 54.4,44 55.23,44 L57,44 C59.76,44 62,41.76 62,39 C62,34.58 57.97,31 53,31 Z M47.5,40 C46.67,40 46,39.33 46,38.5 C46,37.67 46.67,37 47.5,37 C48.33,37 49,37.67 49,38.5 C49,39.33 48.33,40 47.5,40 Z M50.5,36 C49.67,36 49,35.33 49,34.5 C49,33.67 49.67,33 50.5,33 C51.33,33 52,33.67 52,34.5 C52,35.33 51.33,36 50.5,36 Z M55.5,36 C54.67,36 54,35.33 54,34.5 C54,33.67 54.67,33 55.5,33 C56.33,33 57,33.67 57,34.5 C57,35.33 56.33,36 55.5,36 Z M58.5,40 C57.67,40 57,39.33 57,38.5 C57,37.67 57.67,37 58.5,37 C59.33,37 60,37.67 60,38.5 C60,39.33 59.33,40 58.5,40 Z" id="Shape" fill="#9B4200" fill-rule="nonzero" transform="translate(53.000000, 40.000000) rotate(180.000000) translate(-53.000000, -40.000000) "></path>
            </g>
        </g>
    </g>
</svg>