<?xml version="1.0" encoding="UTF-8"?>
<svg width="77px" height="102px" viewBox="0 0 77 102" version="1.1" xmlns="http://www.w3.org/2000/svg" xmlns:xlink="http://www.w3.org/1999/xlink">
    <!-- Generator: Sketch 47.1 (45422) - http://www.bohemiancoding.com/sketch -->
    <title>fitness</title>
    <desc>Created with Sketch.</desc>
    <defs></defs>
    <g id="Screens" stroke="none" stroke-width="1" fill="none" fill-rule="evenodd">
        <g id="Event-(-show-menu-)" transform="translate(-153.000000, -403.000000)">
            <g id="fitness" transform="translate(153.000000, 403.000000)">
                <path d="M73.8740086,0.174950621 C82.1536497,32.4622675 73.8025965,66.9339047 51.31,91.91 C48.2861474,95.263375 45.0452083,98.4080129 41.6060645,101.322335 L0.0782287709,44.1641724 C5.15932344,38.0458494 7.67640663,30.0632677 6.84957288,21.9524881 L73.8740034,0.174930496 Z" id="Combined-Shape" fill="#FFE757"></path>
                <polygon id="Shape" fill="#897500" fill-rule="nonzero" transform="translate(41.594293, 45.594293) rotate(58.000000) translate(-41.594293, -45.594293) " points="50.1642933 48.4542933 51.5942933 47.0242933 50.1642933 45.5942933 46.5942933 49.1642933 38.0242933 40.5942933 41.5942933 37.0242933 40.1642933 35.5942933 38.7342933 37.0242933 37.3042933 35.5942933 35.1642933 37.7342933 33.7342933 36.3042933 32.3042933 37.7342933 33.7342933 39.1642933 31.5942933 41.3042933 33.0242933 42.7342933 31.5942933 44.1642933 33.0242933 45.5942933 36.5942933 42.0242933 45.1642933 50.5942933 41.5942933 54.1642933 43.0242933 55.5942933 44.4542933 54.1642933 45.8842933 55.5942933 48.0242933 53.4542933 49.4542933 54.8842933 50.8842933 53.4542933 49.4542933 52.0242933 51.5942933 49.8842933"></polygon>
            </g>
        </g>
    </g>
</svg>