<?xml version="1.0" encoding="UTF-8"?>
<svg width="86px" height="84px" viewBox="0 0 86 84" version="1.1" xmlns="http://www.w3.org/2000/svg" xmlns:xlink="http://www.w3.org/1999/xlink">
    <!-- Generator: Sketch 47.1 (45422) - http://www.bohemiancoding.com/sketch -->
    <title>food</title>
    <desc>Created with Sketch.</desc>
    <defs></defs>
    <g id="Screens" stroke="none" stroke-width="1" fill="none" fill-rule="evenodd">
        <g id="Event-(-show-menu-)" transform="translate(-137.000000, -328.000000)">
            <g id="food" transform="translate(137.000000, 328.000000)">
                <path d="M85.4549279,61.6457778 C83.7678201,57.5588986 81.8102506,53.586997 79.6,49.7554738 C62.9127892,20.8471703 32.9999223,2.3098763 3.19744231e-14,3.45834472e-14 L1.77635684e-15,70.5874957 C7.58605837,72.408074 14.0733329,77.085152 18.2094938,83.4951439 L85.4549282,61.6457778 Z" id="Combined-Shape" fill="#6FDE55"></path>
                <path d="M29.2875176,42.4353431 L27.2875176,42.4353431 L27.2875176,35.4353431 L25.2875176,35.4353431 L25.2875176,42.4353431 L23.2875176,42.4353431 L23.2875176,35.4353431 L21.2875176,35.4353431 L21.2875176,42.4353431 C21.2875176,44.5553431 22.9475176,46.2753431 25.0375176,46.4053431 L25.0375176,55.4353431 L27.5375176,55.4353431 L27.5375176,46.4053431 C29.6275176,46.2753431 31.2875176,44.5553431 31.2875176,42.4353431 L31.2875176,35.4353431 L29.2875176,35.4353431 L29.2875176,42.4353431 Z M34.2875176,39.4353431 L34.2875176,47.4353431 L36.7875176,47.4353431 L36.7875176,55.4353431 L39.2875176,55.4353431 L39.2875176,35.4353431 C36.5275176,35.4353431 34.2875176,37.6753431 34.2875176,39.4353431 Z" id="Shape" fill="#047B1C" fill-rule="nonzero" transform="translate(30.287518, 45.435343) rotate(39.000000) translate(-30.287518, -45.435343) "></path>
            </g>
        </g>
    </g>
</svg>