<?xml version="1.0" encoding="UTF-8"?>
<svg width="77px" height="101px" viewBox="0 0 77 101" version="1.1" xmlns="http://www.w3.org/2000/svg" xmlns:xlink="http://www.w3.org/1999/xlink">
    <!-- Generator: Sketch 47.1 (45422) - http://www.bohemiancoding.com/sketch -->
    <title>hotel</title>
    <desc>Created with Sketch.</desc>
    <defs></defs>
    <g id="Screens" stroke="none" stroke-width="1" fill="none" fill-rule="evenodd">
        <g id="Event-(-show-menu-)" transform="translate(-30.000000, -404.000000)">
            <g id="hotel" transform="translate(30.000000, 403.000000)">
                <path d="M35.2134158,101.175435 C10.1965062,79.9040187 -2.91260482,47.5329354 0.55,14.55 C1.03185832,9.96244471 1.82742459,5.41845998 2.93382279,0.946805826 L70.0855263,22.7657168 C69.5205558,30.3564181 71.8651363,37.9670712 76.7716456,43.9754394 L35.2134158,101.175435 Z" id="Combined-Shape" fill="#E36565"></path>
                <path d="M29.6764444,47.7060005 C31.3364444,47.7060005 32.6764444,46.3660005 32.6764444,44.7060005 C32.6764444,43.0460005 31.3364444,41.7060005 29.6764444,41.7060005 C28.0164444,41.7060005 26.6764444,43.0460005 26.6764444,44.7060005 C26.6764444,46.3660005 28.0164444,47.7060005 29.6764444,47.7060005 Z M41.6764444,41.7060005 L33.6764444,41.7060005 L33.6764444,48.7060005 L25.6764444,48.7060005 L25.6764444,39.7060005 L23.6764444,39.7060005 L23.6764444,54.7060005 L25.6764444,54.7060005 L25.6764444,51.7060005 L43.6764444,51.7060005 L43.6764444,54.7060005 L45.6764444,54.7060005 L45.6764444,45.7060005 C45.6764444,43.4960005 43.8864444,41.7060005 41.6764444,41.7060005 Z" id="Shape" fill="#900606" fill-rule="nonzero" transform="translate(34.676444, 47.206001) rotate(-117.000000) translate(-34.676444, -47.206001) "></path>
            </g>
        </g>
    </g>
</svg>