<?xml version="1.0" encoding="UTF-8"?>
<svg width="86px" height="85px" viewBox="0 0 86 85" version="1.1" xmlns="http://www.w3.org/2000/svg" xmlns:xlink="http://www.w3.org/1999/xlink">
    <!-- Generator: Sketch 47.1 (45422) - http://www.bohemiancoding.com/sketch -->
    <title>shopping</title>
    <desc>Created with Sketch.</desc>
    <defs></defs>
    <g id="Screens" stroke="none" stroke-width="1" fill="none" fill-rule="evenodd">
        <g id="Event-(-show-menu-)" transform="translate(-37.000000, -328.000000)">
            <g id="shopping" transform="translate(37.000000, 328.000000)">
                <path d="M0.242047313,62.6261328 C12.6162826,31.9021456 39.5168101,9.14022607 72.21,2.19 C76.7623562,1.22495373 81.3678671,0.574405982 85.9999999,0.247201033 L86,70.8274525 C78.3039449,72.6745714 71.5519262,77.5216819 67.3559389,84.4327868 L0.242037062,62.6261583 Z" id="Combined-Shape" fill="#5FABE7"></path>
                <path d="M49.1076861,53.1076861 C48.0076861,53.1076861 47.1176861,54.0076861 47.1176861,55.1076861 C47.1176861,56.2076861 48.0076861,57.1076861 49.1076861,57.1076861 C50.2076861,57.1076861 51.1076861,56.2076861 51.1076861,55.1076861 C51.1076861,54.0076861 50.2076861,53.1076861 49.1076861,53.1076861 Z M43.1076861,37.1076861 L43.1076861,39.1076861 L45.1076861,39.1076861 L48.7076861,46.6976861 L47.3576861,49.1476861 C47.1976861,49.4276861 47.1076861,49.7576861 47.1076861,50.1076861 C47.1076861,51.2076861 48.0076861,52.1076861 49.1076861,52.1076861 L61.1076861,52.1076861 L61.1076861,50.1076861 L49.5276861,50.1076861 C49.3876861,50.1076861 49.2776861,49.9976861 49.2776861,49.8576861 L49.3076861,49.7376861 L50.2076861,48.1076861 L57.6576861,48.1076861 C58.4076861,48.1076861 59.0676861,47.6976861 59.4076861,47.0776861 L62.9876861,40.5876861 C63.0676861,40.4476861 63.1076861,40.2776861 63.1076861,40.1076861 C63.1076861,39.5576861 62.6576861,39.1076861 62.1076861,39.1076861 L47.3176861,39.1076861 L46.3776861,37.1076861 L43.1076861,37.1076861 Z M59.1076861,53.1076861 C58.0076861,53.1076861 57.1176861,54.0076861 57.1176861,55.1076861 C57.1176861,56.2076861 58.0076861,57.1076861 59.1076861,57.1076861 C60.2076861,57.1076861 61.1076861,56.2076861 61.1076861,55.1076861 C61.1076861,54.0076861 60.2076861,53.1076861 59.1076861,53.1076861 Z" id="Shape" fill="#00508F" fill-rule="nonzero" transform="translate(53.107686, 47.107686) rotate(-39.000000) translate(-53.107686, -47.107686) "></path>
            </g>
        </g>
    </g>
</svg>