<?xml version="1.0" encoding="UTF-8"?>
<svg width="191px" height="70px" viewBox="0 0 191 70" version="1.1" xmlns="http://www.w3.org/2000/svg" xmlns:xlink="http://www.w3.org/1999/xlink">
    <!-- Generator: Sketch 47.1 (45422) - http://www.bohemiancoding.com/sketch -->
    <title>brand/logo</title>
    <desc>Created with Sketch.</desc>
    <defs></defs>
    <g id="Screens" stroke="none" stroke-width="1" fill="none" fill-rule="evenodd">
        <g id="Launch-Screen" transform="translate(-94.000000, -336.000000)" fill="#FFFFFF">
            <g id="brand/logo" transform="translate(91.000000, 332.000000)">
                <g id="logo">
                    <path d="M71.874571,66.5577579 C69.074557,66.5577579 66.8345794,65.5911009 65.154571,63.6577579 C63.4745626,61.7244149 62.634571,59.1311075 62.634571,55.8777579 C62.634571,52.6244083 63.4812292,50.0311009 65.174571,48.0977579 C66.8679128,46.1644149 69.1412234,45.1977579 71.994571,45.1977579 C74.9012522,45.1977579 77.1945626,46.1444151 78.874571,48.0377579 C80.5545794,49.9311007 81.394571,52.5044083 81.394571,55.7577579 C81.394571,59.0111075 80.527913,61.6244147 78.794571,63.5977579 C77.061229,65.5711011 74.7545854,66.5577579 71.874571,66.5577579 Z M72.074571,47.8377579 C70.207895,47.8377579 68.741243,48.4910847 67.674571,49.7977579 C66.607899,51.1044311 66.0212382,52.9577459 65.914571,55.3577579 L65.914571,55.8777579 C65.914571,58.3844371 66.4412324,60.3510841 67.494571,61.7777579 C68.5479096,63.2044317 70.0212282,63.9177579 71.914571,63.9177579 C73.8612474,63.9177579 75.3878988,63.2044317 76.494571,61.7777579 C77.6012432,60.3510841 78.154571,58.3711039 78.154571,55.8377579 C78.154571,50.5043979 76.1279246,47.8377579 72.074571,47.8377579 Z M104.834571,64.8777579 L104.834571,63.6377579 C103.421231,65.5844343 101.327918,66.5577579 98.554571,66.5577579 C95.4078886,66.5577579 93.2212438,65.5844343 91.994571,63.6377579 C91.461235,62.7844203 91.1679046,61.7844303 91.114571,60.6377579 C91.0879042,60.0777551 91.074571,58.9044335 91.074571,57.1177579 L91.074571,53.7977579 C91.074571,50.1444063 90.6879082,48.3177579 89.914571,48.3177579 C89.7545702,48.3177579 89.5012394,48.3510909 89.154571,48.4177579 C88.8079026,48.4844249 88.5412386,48.5177579 88.354571,48.5177579 C87.421233,48.5177579 86.954571,48.0777623 86.954571,47.1977579 C86.954571,46.3444203 87.5278986,45.9177579 88.674571,45.9177579 C88.941239,45.9177579 89.3345684,45.9444243 89.854571,45.9977579 C90.3745736,46.0510915 90.767903,46.0777579 91.034571,46.0777579 C91.2745722,46.0777579 91.6879014,46.0377583 92.274571,45.9577579 C92.674573,45.9044243 92.9012374,45.8777579 92.954571,45.8777579 C93.7812418,45.8777579 94.194571,46.3844195 94.194571,47.3977579 L94.194571,48.2377579 L94.154571,50.8377579 L94.034571,53.7977579 L94.034571,56.3977579 C94.034571,58.7177695 94.2212358,60.3844195 94.594571,61.3977579 C95.2079074,63.0777663 96.6745594,63.9177579 98.994571,63.9177579 C100.141243,63.9177579 101.154567,63.6577605 102.034571,63.1377579 C102.914575,62.6177553 103.527903,61.9310955 103.874571,61.0777579 C104.30124,60.0377527 104.514571,58.0644391 104.514571,55.1577579 L104.514571,50.3577579 C104.381237,49.0777515 104.034574,48.4377579 103.474571,48.4377579 C103.181236,48.4377579 102.941239,48.4644243 102.754571,48.5177579 L102.274571,48.5177579 C101.341233,48.5177579 100.874571,48.1044287 100.874571,47.2777579 C100.874571,46.3444199 101.394566,45.8777579 102.434571,45.8777579 C102.674572,45.8777579 103.041235,45.9044243 103.534571,45.9577579 C104.027907,46.0110915 104.39457,46.0377579 104.634571,46.0377579 C104.847905,46.0377579 105.167902,46.0177581 105.594571,45.9777579 C106.02124,45.9377577 106.341237,45.9177579 106.554571,45.9177579 C107.354575,45.9177579 107.754571,46.3444203 107.754571,47.1977579 C107.754571,47.5710931 107.727905,47.8644235 107.674571,48.0777579 C107.541237,49.0910963 107.474571,50.5844147 107.474571,52.5577579 L107.474571,58.7177579 C107.474571,60.3444327 107.487904,61.2510903 107.514571,61.4377579 C107.647905,62.8510983 108.021235,63.5577579 108.634571,63.5577579 C108.821239,63.5577579 109.087903,63.5244249 109.434571,63.4577579 C109.781239,63.3910909 110.047903,63.3577579 110.234571,63.3577579 C111.141242,63.3577579 111.594571,63.7977535 111.594571,64.6777579 C111.594571,65.5844291 111.034577,66.0377579 109.914571,66.0377579 C109.67457,66.0377579 109.327907,66.0110915 108.874571,65.9577579 C108.207901,65.8777575 107.794572,65.8377579 107.634571,65.8377579 C107.554571,65.8377579 107.274573,65.8644243 106.794571,65.9177579 C106.474569,65.9977583 106.194572,66.0377579 105.954571,66.0377579 C105.207901,66.0377579 104.834571,65.6510951 104.834571,64.8777579 Z M123.314571,47.0377579 L123.314571,48.1177579 C124.701245,46.1710815 126.554559,45.1977579 128.874571,45.1977579 C130.741247,45.1977579 132.254565,45.7244193 133.414571,46.7777579 C134.574577,47.8310965 135.154571,49.1844163 135.154571,50.8377579 C135.154571,52.0110971 134.861241,52.9644209 134.274571,53.6977579 C133.687901,54.4310949 132.914576,54.7977579 131.954571,54.7977579 C131.341235,54.7977579 130.82124,54.6110931 130.394571,54.2377579 C129.967902,53.8644227 129.754571,53.4110939 129.754571,52.8777579 C129.754571,52.4510891 129.914569,52.0710929 130.234571,51.7377579 C130.554573,51.4044229 130.927902,51.2377579 131.354571,51.2377579 C131.434571,51.2377579 131.607903,51.2777575 131.874571,51.3577579 C132.034572,51.0377563 132.114571,50.7444259 132.114571,50.4777579 C132.114571,49.7044207 131.774574,49.0510939 131.094571,48.5177579 C130.414568,47.9844219 129.567909,47.7177579 128.554571,47.7177579 C126.474561,47.7177579 125.087908,48.6510819 124.394571,50.5177579 C123.967902,51.6644303 123.754571,53.3977463 123.754571,55.7177579 L123.754571,58.3577579 C123.754571,60.1444335 123.767904,61.1444235 123.794571,61.3577579 C123.927905,62.8777655 124.341234,63.6377579 125.034571,63.6377579 C125.381239,63.6377579 125.741236,63.5844251 126.114571,63.4777579 C126.407906,63.3977575 126.661237,63.3577579 126.874571,63.3577579 C127.727909,63.3577579 128.154571,63.7844203 128.154571,64.6377579 C128.154571,65.5710959 127.60791,66.0377579 126.514571,66.0377579 L126.354571,66.0377579 C125.954569,66.0377579 125.347908,65.9910917 124.534571,65.8977579 C123.721234,65.8044241 123.114573,65.7577579 122.714571,65.7577579 C121.647899,65.7577579 120.807907,65.7844243 120.194571,65.8377579 L117.954571,66.0377579 C116.861232,66.0377579 116.314571,65.5710959 116.314571,64.6377579 C116.314571,63.8110871 116.821233,63.3977579 117.834571,63.3977579 C118.101239,63.3977579 118.301237,63.4110911 118.434571,63.4377579 L119.034571,63.5577579 C119.301239,63.6110915 119.487904,63.6377579 119.594571,63.6377579 C120.261241,63.6377579 120.621237,63.0244307 120.674571,61.7977579 L120.754571,59.7577579 L120.634571,50.6777579 C120.554571,49.1044167 120.154575,48.3177579 119.434571,48.3177579 C119.221237,48.3177579 118.927906,48.3577575 118.554571,48.4377579 C118.181236,48.5177583 117.887905,48.5577579 117.674571,48.5577579 C116.794567,48.5577579 116.354571,48.1310955 116.354571,47.2777579 C116.354571,46.3444199 116.927899,45.8777579 118.074571,45.8777579 C118.341239,45.8777579 118.741235,45.9110909 119.274571,45.9777579 C119.807907,46.0444249 120.207903,46.0777579 120.474571,46.0777579 C120.687905,46.0777579 121.034569,46.0510915 121.514571,45.9977579 C121.727905,45.9444243 121.981236,45.9177579 122.274571,45.9177579 C122.967908,45.9177579 123.314571,46.2910875 123.314571,47.0377579 Z M147.594571,47.1177579 L147.594571,48.2377579 C149.194579,46.2110811 151.327891,45.1977579 153.994571,45.1977579 C155.434578,45.1977579 156.794565,45.5644209 158.074571,46.2977579 C159.354577,47.0310949 160.221235,47.9444191 160.674571,49.0377579 C161.047906,49.9444291 161.234571,51.1310839 161.234571,52.5977579 L161.234571,60.1977579 C161.234571,61.3444303 161.247904,62.0244235 161.274571,62.2377579 C161.407905,63.1444291 161.767901,63.5977579 162.354571,63.5977579 C162.594572,63.5977579 162.907902,63.5644249 163.294571,63.4977579 C163.68124,63.4310909 163.95457,63.3977579 164.114571,63.3977579 C164.461239,63.3977579 164.761236,63.5177567 165.014571,63.7577579 C165.267906,63.9977591 165.394571,64.2910895 165.394571,64.6377579 C165.394571,65.0377599 165.234573,65.3710899 164.914571,65.6377579 C164.594569,65.9044259 164.207907,66.0377579 163.754571,66.0377579 C163.381236,66.0377579 162.767909,65.9844251 161.914571,65.8777579 C161.061233,65.7710907 160.261241,65.7177579 159.514571,65.7177579 C158.821234,65.7177579 158.247907,65.7444243 157.794571,65.7977579 C156.461231,65.9577587 155.754571,66.0377579 155.674571,66.0377579 C154.607899,66.0377579 154.074571,65.5710959 154.074571,64.6377579 C154.074571,63.8110871 154.5279,63.3977579 155.434571,63.3977579 C155.647905,63.3977579 155.887903,63.4244243 156.154571,63.4777579 C156.66124,63.5844251 156.981237,63.6377579 157.114571,63.6377579 C157.754574,63.6377579 158.101237,62.9044319 158.154571,61.4377579 L158.234571,59.3977579 L158.274571,56.9577579 L158.274571,53.9177579 C158.274571,52.5044175 158.207905,51.5310939 158.074571,50.9977579 C157.83457,49.9844195 157.314575,49.1977607 156.514571,48.6377579 C155.634567,48.0244215 154.634577,47.7177579 153.514571,47.7177579 C151.381227,47.7177579 149.847909,48.4777503 148.914571,49.9977579 C148.274568,51.0377631 147.954571,52.8110787 147.954571,55.3177579 L147.954571,60.6377579 C147.954571,61.8110971 148.03457,62.6110891 148.194571,63.0377579 C148.354572,63.4644267 148.647902,63.6777579 149.074571,63.6777579 C149.287905,63.6777579 149.581236,63.6244251 149.954571,63.5177579 C150.327906,63.4110907 150.63457,63.3577579 150.874571,63.3577579 C151.701242,63.3577579 152.114571,63.8110867 152.114571,64.7177579 C152.114571,65.5977623 151.581243,66.0377579 150.514571,66.0377579 C150.301237,66.0377579 149.60791,65.9577587 148.434571,65.7977579 C147.847901,65.7177575 147.194575,65.6777579 146.474571,65.6777579 C145.914568,65.6777579 145.167909,65.7310907 144.234571,65.8377579 C143.061232,65.9710919 142.394572,66.0377579 142.234571,66.0377579 C141.114565,66.0377579 140.554571,65.5844291 140.554571,64.6777579 C140.554571,63.8244203 140.981233,63.3977579 141.834571,63.3977579 C141.967905,63.3977579 142.214569,63.4377575 142.574571,63.5177579 C142.934573,63.5977583 143.287903,63.6377579 143.634571,63.6377579 C144.434575,63.6377579 144.847904,62.8644323 144.874571,61.3177579 L144.954571,56.8777579 L144.954571,52.0377579 L144.874571,50.6377579 C144.821237,49.7310867 144.707905,49.1110929 144.534571,48.7777579 C144.361237,48.4444229 144.06124,48.2777579 143.634571,48.2777579 C143.447903,48.2777579 143.174573,48.3110909 142.814571,48.3777579 C142.454569,48.4444249 142.181239,48.4777579 141.994571,48.4777579 C141.034566,48.4777579 140.554571,48.0510955 140.554571,47.1977579 C140.554571,46.3177535 141.154565,45.8777579 142.354571,45.8777579 C142.514572,45.8777579 142.647904,45.8910911 142.754571,45.9177579 L144.234571,46.0777579 C144.66124,46.0777579 145.034569,46.0510915 145.354571,45.9977579 C146.047908,45.9444243 146.407904,45.9177579 146.434571,45.9177579 C147.207908,45.9177579 147.594571,46.3177539 147.594571,47.1177579 Z M176.394571,49.7177579 L180.994571,63.2377579 L185.874571,49.9177579 C186.007905,49.5444227 186.074571,49.2510923 186.074571,49.0377579 C186.074571,48.5844223 185.767907,48.3577579 185.154571,48.3577579 C184.834569,48.3577579 184.581239,48.3844243 184.394571,48.4377579 C183.967902,48.4910915 183.687905,48.5177579 183.554571,48.5177579 C182.674567,48.5177579 182.234571,48.0910955 182.234571,47.2377579 C182.234571,46.3310867 182.807899,45.8777579 183.954571,45.8777579 C184.114572,45.8777579 184.381236,45.9044243 184.754571,45.9577579 L186.194571,46.1577579 C186.567906,46.2110915 186.967902,46.2377579 187.394571,46.2377579 C187.847907,46.2377579 188.514567,46.1844251 189.394571,46.0777579 C190.274575,45.9710907 190.941235,45.9177579 191.394571,45.9177579 C192.541243,45.9177579 193.114571,46.3577535 193.114571,47.2377579 C193.114571,48.0910955 192.674575,48.5177579 191.794571,48.5177579 C191.527903,48.5177579 191.327905,48.4910915 191.194571,48.4377579 C190.847903,48.3577575 190.607905,48.3177579 190.474571,48.3177579 C189.967902,48.3177579 189.447907,48.9977511 188.914571,50.3577579 L183.474571,63.9577579 C182.274565,66.9711063 181.141243,69.1577511 180.074571,70.5177579 C178.261229,72.8377695 175.994585,73.9977579 173.274571,73.9977579 C171.647896,73.9977579 170.281243,73.5844287 169.174571,72.7577579 C168.067899,71.9310871 167.514571,70.9310971 167.514571,69.7577579 C167.514571,68.9310871 167.754569,68.2577605 168.234571,67.7377579 C168.714573,67.2177553 169.341234,66.9577579 170.114571,66.9577579 C170.727907,66.9577579 171.234569,67.1377561 171.634571,67.4977579 C172.034573,67.8577597 172.234571,68.3044219 172.234571,68.8377579 C172.234571,69.6910955 171.847908,70.2377567 171.074571,70.4777579 C171.474573,71.0644275 172.234565,71.3577579 173.354571,71.3577579 C174.767911,71.3577579 176.041232,70.8310965 177.174571,69.7777579 C178.30791,68.7244193 178.874571,67.5444311 178.874571,66.2377579 C178.874571,65.5710879 178.514575,64.3311003 177.794571,62.5177579 L173.394571,51.3977579 L172.914571,50.1177579 C172.461235,48.9177519 171.941241,48.3177579 171.354571,48.3177579 C171.19457,48.3177579 170.907906,48.3577575 170.494571,48.4377579 C170.081236,48.5177583 169.807905,48.5577579 169.674571,48.5577579 C168.741233,48.5577579 168.274571,48.1310955 168.274571,47.2777579 C168.274571,46.3710867 168.887898,45.9177579 170.114571,45.9177579 C170.514573,45.9177579 170.821237,45.9310911 171.034571,45.9577579 L172.634571,46.1577579 L172.954571,46.1577579 C173.141239,46.1844247 173.301237,46.1977579 173.434571,46.1977579 C174.394576,46.1977579 175.421232,46.1444251 176.514571,46.0377579 C177.341242,45.9577575 177.887903,45.9177579 178.154571,45.9177579 C179.274577,45.9177579 179.834571,46.3577535 179.834571,47.2377579 C179.834571,48.1177623 179.327909,48.5577579 178.314571,48.5577579 C178.15457,48.5577579 177.901239,48.5244249 177.554571,48.4577579 C177.207903,48.3910909 176.954572,48.3577579 176.794571,48.3577579 C176.421236,48.3577579 176.234571,48.5444227 176.234571,48.9177579 C176.234571,49.1310923 176.287904,49.3977563 176.394571,49.7177579 Z" id="ourny"></path>
                    <g id="icon/logo" transform="translate(41.500000, 35.147321) rotate(-1.500000) translate(-41.500000, -35.147321) translate(1.000000, 2.000000)">
                        <path d="M57.7757754,4.22236565 C57.7685848,4.22172084 57.7613835,4.22108297 57.7541718,4.22045202 C57.1534948,4.1678996 56.7304114,4.16101337 56.4849087,4.19979313 L52.2931715,4.37538708 C49.9844395,4.47469152 47.9290888,4.44551553 46.1270579,4.28785825 C44.2048915,4.11969049 42.3532844,3.83718074 40.572181,3.44032053 L35.8517574,2.39462629 C35.3764477,2.29278362 34.958596,2.22609756 34.5981898,2.1945661 C31.955211,1.96333542 30.5421849,2.89421891 30.3590688,4.9872445 C30.2858224,5.82445474 30.4946493,6.55075103 30.9855557,7.16615516 C31.476462,7.78155929 32.1123457,8.1234153 32.8932258,8.19173345 C33.5539705,8.24954112 34.37272,8.23078608 35.3494988,8.13546777 C35.7804365,8.05265301 36.4163697,8.0480324 37.2573174,8.12160579 C40.3207701,8.38962317 41.6588965,10.7362237 41.271737,15.1614778 L40.1140395,29.4317637 L39.8629102,32.3021844 C39.3397216,38.2822575 38.7187909,42.9581514 38.0000995,46.3300064 C36.2674121,54.3735667 30.8660382,57.9985217 21.7958157,57.20498 C17.7712799,56.8528788 14.5617786,55.4874477 12.1672154,53.108646 C9.77265229,50.7298442 8.71926339,47.8959658 9.00701712,44.6069256 C9.16920559,42.7531029 9.80732342,41.1669125 10.9213898,39.8483068 C12.0354561,38.5297012 13.2532157,37.928215 14.5747051,38.0438304 C14.9351113,38.0753618 15.3725327,38.2642751 15.8869826,38.610576 C14.9884841,39.1948106 14.4973871,39.9653222 14.4136769,40.9221339 C14.3247348,41.9387463 14.68305,42.8588938 15.488633,43.682604 C16.2942161,44.5063142 17.2676361,44.9680871 18.4089224,45.0679367 C19.7304118,45.1835521 20.9200752,44.7302517 21.9779482,43.7080221 C23.0358213,42.6857924 23.6301475,41.4271873 23.7609446,39.9321691 C23.9492925,37.7793427 23.2914211,35.9592529 21.7873107,34.4718449 C20.2832003,32.9844369 18.2397202,32.127758 15.6568092,31.9017826 C12.0527472,31.586468 8.92059885,32.6230424 6.26027002,35.0115369 C3.59994118,37.4000314 2.10237887,40.5078554 1.76753816,44.3351022 C1.31759596,49.4779651 2.9172491,53.85101 6.56654558,57.4543683 C10.215842,61.0577265 15.1939698,63.1352747 21.5010781,63.6870752 C29.0095405,64.3439805 35.1680417,62.4423484 39.9767664,57.9821219 C42.2178798,55.8883724 43.7865028,53.5249205 44.6826824,50.8916953 C45.6306023,48.0250362 46.4850762,42.4025777 47.2461274,34.0241613 C47.2511091,34.0196443 47.2561094,34.0152142 47.2611281,34.010871 C47.682722,33.6460303 47.9957728,29.0957709 47.8003884,27.7090697 L48.8402291,15.8236351 C49.1076894,12.7665498 50.0137572,10.8293926 51.5584494,10.0121429 C53.5128464,10.002853 56.3952841,10.2853747 59.6192531,10.5108166 C65.9179757,10.9512662 70.2671065,11.5052873 70.4361243,11.5986641 C70.6051421,11.692041 74.394539,11.7460177 75.14178,12.2835025 C77.1889177,13.7559935 78.3311199,15.167076 78.58969,13.921772 C79.0157419,11.869855 79.2640001,10.3400217 79.3344721,9.33222606 C79.5184821,6.70075972 78.1201854,5.28083433 75.1395399,5.07240729 C74.2397223,5.00948592 73.3941985,4.97849193 72.6029431,4.97942437 C70.8517165,4.96949151 69.3274246,4.947295 68.0300218,4.91283417 L58.2750559,4.23631654 C58.1079212,4.23044796 57.9414637,4.22582537 57.7757754,4.22236565 Z" id="jf" transform="translate(40.523234, 32.987553) rotate(-3.000000) translate(-40.523234, -32.987553) "></path>
                    </g>
                </g>
            </g>
        </g>
    </g>
</svg>