<?xml version="1.0" encoding="UTF-8"?>
<svg width="19px" height="22px" viewBox="0 0 19 22" version="1.1" xmlns="http://www.w3.org/2000/svg" xmlns:xlink="http://www.w3.org/1999/xlink">
    <!-- Generator: Sketch 47.1 (45422) - http://www.bohemiancoding.com/sketch -->
    <title>calendar-icon@2x</title>
    <desc>Created with Sketch.</desc>
    <defs></defs>
    <g id="Symbols" stroke="none" stroke-width="1" fill="none" fill-rule="evenodd">
        <g id="icon/calendar" transform="translate(0.000000, -1.000000)" fill="#A4A4A4">
            <g id="calendar-icon" transform="translate(0.000000, 0.100000)">
                <g id="Group-3" transform="translate(1.000000, 0.900000)">
                    <path d="M2.49439268,-1.66533454e-15 L5.00560732,-1.66533454e-15 L5.00560732,-8.49320614e-15 C5.1866054,-8.52645495e-15 5.33333333,0.146727934 5.33333333,0.327726013 L5.33333333,1.67227399 L5.33333333,1.67227399 C5.33333333,1.85327207 5.1866054,2 5.00560732,2 L2.49439268,2 L2.49439268,2 C2.3133946,2 2.16666667,1.85327207 2.16666667,1.67227399 L2.16666667,0.327726013 C2.16666667,0.146727934 2.3133946,-1.63208573e-15 2.49439268,-1.66533454e-15 L2.49439268,-1.66533454e-15 Z M11.9943927,-7.99360578e-16 L14.5056073,-7.99360578e-16 L14.5056073,-6.77236045e-15 C14.6866054,-7.12712643e-15 14.8333333,0.146727934 14.8333333,0.327726013 L14.8333333,1.67227399 L14.8333333,1.67227399 C14.8333333,1.85327207 14.6866054,2 14.5056073,2 L11.9943927,2 L11.9943927,2 C11.8133946,2 11.6666667,1.85327207 11.6666667,1.67227399 L11.6666667,0.327726013 L11.6666667,0.327726013 C11.6666667,0.146727934 11.8133946,-5.77373856e-16 11.9943927,-6.10622664e-16 L11.9943927,-7.99360578e-16 Z M0,3 L17,3 L17,6 L0,6 L0,3 Z" id="Combined-Shape"></path>
                </g>
                <rect id="Rectangle-4" x="10.6111111" y="13.5" width="4.22222222" height="4.2" rx="0.5735205"></rect>
                <path d="M2.294082,4.4 C1.85552262,4.4 1.5,4.75552262 1.5,5.194082 L1.5,19.705918 C1.5,20.1444774 1.85552262,20.5 2.294082,20.5 L16.705918,20.5 C17.1444774,20.5 17.5,20.1444774 17.5,19.705918 L17.5,5.194082 C17.5,4.75552262 17.1444774,4.4 16.705918,4.4 L2.294082,4.4 Z M2.294082,2.9 L16.705918,2.9 C17.9729045,2.9 19,3.9270955 19,5.194082 L19,19.705918 C19,20.9729045 17.9729045,22 16.705918,22 L2.294082,22 C1.0270955,22 1.55161097e-16,20.9729045 0,19.705918 L0,5.194082 C-1.55161097e-16,3.9270955 1.0270955,2.9 2.294082,2.9 Z" id="Rectangle" fill-rule="nonzero"></path>
            </g>
        </g>
    </g>
</svg>