<?xml version="1.0" encoding="UTF-8"?>
<svg width="247px" height="220px" viewBox="0 0 247 220" version="1.1" xmlns="http://www.w3.org/2000/svg" xmlns:xlink="http://www.w3.org/1999/xlink">
    <!-- Generator: Sketch 47.1 (45422) - http://www.bohemiancoding.com/sketch -->
    <title>earth</title>
    <desc>Created with Sketch.</desc>
    <defs>
        <rect id="path-1" x="0" y="0" width="303.75" height="234.09"></rect>
    </defs>
    <g id="wire-frame" stroke="none" stroke-width="1" fill="none" fill-rule="evenodd">
        <g id="Login-screen" transform="translate(-71.000000, -247.000000)">
            <g id="sign-in-bg" transform="translate(36.000000, 76.000000)">
                <g id="onboarding-graphic" transform="translate(0.000000, 168.080000)">
                    <mask id="mask-2" fill="white">
                        <use xlink:href="#path-1"></use>
                    </mask>
                    <g id="Mask"></g>
                    <g mask="url(#mask-2)">
                        <g transform="translate(27.540000, 0.000000)">
                            <path d="M227.617127,127.17 L230.85,127.17 L230.85,127.17 C236.665558,127.17 241.38,131.884442 241.38,137.7 C241.38,143.515558 236.665558,148.23 230.85,148.23 L217.834411,148.23 C220.788144,150.095131 222.75,153.388458 222.75,157.14 C222.75,162.955558 218.035558,167.67 212.22,167.67 L68.04,167.67 C62.2244416,167.67 57.51,162.955558 57.51,157.14 C57.51,151.324442 62.2244416,146.61 68.04,146.61 L68.9055888,146.61 C65.9518559,144.744869 63.99,141.451542 63.99,137.7 C63.99,133.322336 66.6613586,129.568602 70.4628726,127.98 L54.27,127.98 C48.4544416,127.98 43.74,123.265558 43.74,117.45 C43.74,112.306597 47.4276394,108.024489 52.303239,107.103355 C53.4227135,107.508884 54.6305346,107.73 55.89,107.73 L81.81,107.73 C87.6255584,107.73 92.34,103.015558 92.34,97.2 C92.34,91.3844416 87.6255584,86.67 81.81,86.67 L74.5128726,86.67 C70.7113586,85.081398 68.04,81.3276636 68.04,76.95 C68.04,73.1984577 70.0018559,69.9051314 72.9555888,68.04 L63.18,68.04 C57.3644416,68.04 52.65,63.3255584 52.65,57.51 L52.65,57.51 L52.65,57.51 C52.65,51.6944416 57.3644416,46.98 63.18,46.98 L104.49,46.98 L79.38,46.98 L79.38,46.98 C73.5644416,46.98 68.85,42.2655584 68.85,36.45 L68.85,36.45 L68.85,36.45 C68.85,30.6344416 73.5644416,25.92 79.38,25.92 L244.62,25.92 L244.62,25.92 C250.435558,25.92 255.15,30.6344416 255.15,36.45 L255.15,36.45 C255.15,42.2655584 250.435558,46.98 244.62,46.98 L204.7275,46.98 L231.66,46.98 C237.475558,46.98 242.19,51.6944416 242.19,57.51 L242.19,57.51 C242.19,61.2615423 240.228144,64.5548686 237.274411,66.42 L225.99,66.42 C220.174442,66.42 215.46,71.1344416 215.46,76.95 C215.46,82.7655584 220.174442,87.48 225.99,87.48 L225.99,87.48 L239.76,87.48 C241.197895,87.48 242.568476,87.1917949 243.817127,86.67 L246.24,86.67 L246.24,86.67 C252.055558,86.67 256.77,91.3844416 256.77,97.2 C256.77,103.015558 252.055558,107.73 246.24,107.73 L227.617127,107.73 C226.368476,107.208205 224.997895,106.92 223.56,106.92 L201.69,106.92 C195.874442,106.92 191.16,111.634442 191.16,117.45 C191.16,123.265558 195.874442,127.98 201.69,127.98 L223.56,127.98 C224.997895,127.98 226.368476,127.691795 227.617127,127.17 Z" id="cloud" fill="#F6F9FC" opacity="0.835389459" transform="translate(150.255000, 96.795000) rotate(-15.000000) translate(-150.255000, -96.795000) "></path>
                            <g id="earth" stroke-width="1" fill="none" transform="translate(43.740000, 41.310000)">
                                <circle id="Oval" stroke="#E4E4E4" stroke-width="1.62" stroke-linecap="round" stroke-linejoin="round" stroke-dasharray="9.720000171661377" cx="81" cy="81" r="81"></circle>
                                <g id="Earth" transform="translate(8.100000, 5.670000)">
                                    <ellipse id="Oval-8" fill="#8AD1F6" cx="73.4522727" cy="75.9165517" rx="59.4613636" ry="59.8282759"></ellipse>
                                    <g id="Path-12-+-Path-13-Mask">
                                        <ellipse id="Oval-15" cx="75.8849026" cy="85.6905762" rx="59.4613636" ry="59.8282759"></ellipse>
                                        <path d="M85.0932054,135.361313 C85.0932054,135.361313 96.3243437,126.76169 94.5834909,122.02908 C92.8426382,117.29647 68.2442139,108.670388 72.1523845,97.9504737 C76.0605552,87.2305593 91.7646491,92.6450239 97.5500885,88.3891586 C103.335528,84.1332933 105.839654,75.8512319 111.543018,73.1373142 C117.246382,70.4233965 117.864847,79.7422847 124.742193,75.4499295 C131.619539,71.1575743 129.537315,52.1950938 135.171601,58.3900168 C141.794872,58.3900168 157.480696,47.3074001 150.329605,76.8975877 C143.178514,106.487775 116.56987,135.361311 116.56987,135.361311 L85.0932054,135.361313 Z" id="Path-12" fill="#8BE778"></path>
                                        <path d="M81.5954781,136.869589 C81.5954781,136.869589 97.8233697,123.745138 96.0825169,119.012528 C94.3416641,114.279918 69.7432399,105.653836 73.6514105,94.9339219 C77.5595811,84.2140076 93.2636751,89.6284722 99.0491145,85.3726069 C104.834554,81.1167416 107.33868,72.8346802 113.042044,70.1207625 C118.745408,67.4068447 119.363873,76.725733 126.241219,72.4333778 C133.118565,68.1410226 131.036341,49.1785421 136.670627,55.3734651 C143.293898,55.3734651 158.979722,44.2908484 151.828631,73.8810359 C144.67754,103.471223 118.068896,132.344759 118.068896,132.344759 L81.5954781,136.869589 Z" id="Path-12" stroke="#7C8495" stroke-width="2.0007"></path>
                                        <path d="M33.7713432,47.8885313 C42.7033881,52.0051552 39.099566,31.6117033 48.1806395,36.8238521 C50.2531494,38.0133844 51.908811,39.3586924 53.297399,40.7717521 C54.1936232,41.6837709 54.9785929,42.624013 55.6925769,43.5688119 C58.7195055,47.5742785 60.470587,51.6616473 64.0142034,54.0275998 C65.4714638,55.0005633 67.8675013,55.5819337 70.5278355,55.725805 C72.4764201,55.8311848 74.5667986,55.7018482 76.533927,55.319756 C82.3390048,54.192186 87.07074,50.8634562 83.9176064,44.8699637 C78.237231,34.0726767 87.1765537,32.624604 90.1115086,26.8404947 C93.0464636,21.0563855 95.5403966,14.602841 92.5170304,5.96706256 C89.4936641,-2.6687159 78.2372296,0.868916014 78.2372296,0.868916014 L2.47036354,34.072678 C2.47036354,34.072678 24.8392983,43.7719073 33.7713432,47.8885313 Z" id="Path-13" fill="#8BE778"></path>
                                        <path d="M31.7726419,49.8995657 C40.7046868,54.0161897 37.1008647,33.6227378 46.1819382,38.8348866 C48.2544481,40.0244189 49.9101097,41.3697269 51.2986977,42.7827866 C52.1949219,43.6948054 52.9798916,44.6350475 53.6938756,45.5798464 C56.7208042,49.585313 58.4718857,53.6726818 62.0155021,56.0386343 C63.4727625,57.0115977 65.8688,57.5929682 68.5291342,57.7368395 C70.4777188,57.8422193 72.5680973,57.7128827 74.5352257,57.3307905 C80.3403035,56.2032205 85.0720387,52.8744907 81.9189052,46.8809982 C76.2385297,36.0837112 85.1778524,34.6356385 88.1128073,28.8515292 C91.0477623,23.06742 93.5416953,16.6138755 90.5183291,7.97809704 C87.4949628,-0.657681421 76.2385283,2.8799505 76.2385283,2.8799505 L0.471662241,36.0837125 C0.471662241,36.0837125 22.840597,45.7829418 31.7726419,49.8995657 Z" id="Path-13" stroke="#7C8495" stroke-width="2.0007" stroke-linecap="round"></path>
                                    </g>
                                    <ellipse id="Oval-8" stroke="#7C8495" stroke-width="2.0007" cx="73.4522727" cy="75.9165517" rx="59.4613636" ry="59.8282759"></ellipse>
                                    <path d="M94.0793042,45.4070888 C99.8140483,49.3136637 110.530422,50.7258032 104.789775,39.5925725 C99.0491277,28.4593418 88.34456,41.500514 94.0793042,45.4070888 Z" id="Path-13" stroke="#7C8495" stroke-width="2.0007" fill="#8BE778"></path>
                                    <path d="M16.3193042,83.4770888 C9.72,89.1 37.330647,96.9932307 31.59,85.86 C25.849353,74.7267693 22.9186083,77.8541777 16.3193042,83.4770888 Z" id="Path-13" stroke="#7C8495" stroke-width="2.0007" fill="#8BE778"></path>
                                    <path d="M64.8797716,125.661788 C70.2358984,126.213609 68.7905475,118.458276 59.0197552,112.330392 C49.2489629,106.202509 59.5236447,125.109967 64.8797716,125.661788" id="Path-13" stroke="#7C8495" stroke-width="2.0007" fill="#8BE778"></path>
                                </g>
                            </g>
                            <g id="Additional-Elements" stroke-width="1" fill="none" transform="translate(130.815000, 126.765000) scale(-1, 1) translate(-130.815000, -126.765000) translate(0.000000, 19.440000)">
                                <circle id="Oval-11" fill="#BBBBBB" opacity="0.162430037" cx="231.66" cy="8.91" r="3.24"></circle>
                                <circle id="Oval-11" fill="#BBBBBB" opacity="0.170184235" cx="219.51" cy="25.11" r="1.62"></circle>
                                <circle id="Oval-11" fill="#BBBBBB" opacity="0.301364272" cx="238.95" cy="38.07" r="3.24"></circle>
                                <circle id="Oval-11" fill="#BBBBBB" opacity="0.184001866" cx="51.03" cy="29.16" r="3.24"></circle>
                                <circle id="Oval-11" fill="#BBBBBB" opacity="0.149778451" cx="42.12" cy="50.22" r="1.62"></circle>
                                <g id="Group-23" opacity="0.364272388" transform="translate(89.505000, 6.480000) rotate(-120.000000) translate(-89.505000, -6.480000) translate(85.050000, 1.620000)" stroke="#BBBBBB" stroke-width="2.268" stroke-linecap="round">
                                    <path d="M2.35367281e-12,4.41834448 L8.79368923,4.41834448" id="Line"></path>
                                    <g id="Group-22" transform="translate(3.990046, 4.473512) rotate(-270.000000) translate(-3.990046, -4.473512) translate(-0.464954, 2.853512)">
                                        <path d="M-2.93098879e-13,1.21651827 L8.79368923,1.21651827" id="Line"></path>
                                    </g>
                                </g>
                                <g id="Group-23" opacity="0.46379431" transform="translate(198.450000, 183.870000) rotate(-330.000000) translate(-198.450000, -183.870000) translate(193.590000, 179.010000)" stroke="#BBBBBB" stroke-width="1.944" stroke-linecap="round">
                                    <path d="M1.8189894e-12,4.84678776 L9.69357553,4.84678776" id="Line"></path>
                                    <g id="Group-22" transform="translate(4.843485, 4.860000) rotate(-270.000000) translate(-4.843485, -4.860000) translate(-0.016515, 3.645000)">
                                        <path d="M1.15285559e-12,1.21169694 L9.69357553,1.21169694" id="Line"></path>
                                    </g>
                                </g>
                                <circle id="Oval-11" fill="#BBBBBB" opacity="0.223822295" cx="170.91" cy="200.07" r="3.24"></circle>
                                <circle id="Oval-11" fill="#BBBBBB" opacity="0.135377799" cx="154.71" cy="174.96" r="1.62"></circle>
                                <g id="Group-23" opacity="0.390741604" transform="translate(250.290000, 113.805000) rotate(-15.000000) translate(-250.290000, -113.805000) translate(247.050000, 110.160000)" stroke="#BBBBBB" stroke-width="1.944" stroke-linecap="round">
                                    <path d="M1.8189894e-12,3.36197397 L6.22245949,3.36197397" id="Line"></path>
                                    <g id="Group-22" transform="translate(2.744457, 3.501122) rotate(-270.000000) translate(-2.744457, -3.501122) translate(-0.495543, 2.286122)">
                                        <path d="M2.10498285e-13,0.840493493 L6.22245949,0.840493493" id="Line"></path>
                                    </g>
                                </g>
                                <circle id="Oval-11" fill="#BBBBBB" opacity="0.184001866" cx="63.18" cy="153.09" r="3.24"></circle>
                                <circle id="Oval-11" fill="#BBBBBB" opacity="0.149778451" cx="76.95" cy="120.69" r="1.62"></circle>
                                <g id="Group-23" opacity="0.364272388" transform="translate(35.235000, 170.910000) rotate(-120.000000) translate(-35.235000, -170.910000) translate(30.780000, 166.050000)" stroke="#BBBBBB" stroke-width="2.268" stroke-linecap="round">
                                    <path d="M2.35367281e-12,4.41834448 L8.79368923,4.41834448" id="Line"></path>
                                    <g id="Group-22" transform="translate(3.990046, 4.473512) rotate(-270.000000) translate(-3.990046, -4.473512) translate(-0.464954, 2.853512)">
                                        <path d="M-2.93098879e-13,1.21651827 L8.79368923,1.21651827" id="Line"></path>
                                    </g>
                                </g>
                            </g>
                        </g>
                    </g>
                    <g id="Group-2" mask="url(#mask-2)">
                        <g transform="translate(119.880000, 59.130000)">
                            <path d="M6.48,18.63 C10.8,12.9158701 12.96,8.86587012 12.96,6.48 C12.96,2.90119482 10.0588052,0 6.48,0 C2.90119482,0 0,2.90119482 0,6.48 C0,8.86587012 2.16,12.9158701 6.48,18.63 Z" id="Oval-9" stroke="#7C8495" stroke-width="1.62" fill="#F25C62"></path>
                            <circle id="Oval-2" stroke="none" fill="#CA4248" cx="6.48" cy="6.48" r="2.43"></circle>
                        </g>
                    </g>
                    <g id="Group-2" mask="url(#mask-2)">
                        <g transform="translate(148.230000, 76.140000)">
                            <path d="M6.48,18.63 C10.8,12.9158701 12.96,8.86587012 12.96,6.48 C12.96,2.90119482 10.0588052,0 6.48,0 C2.90119482,0 0,2.90119482 0,6.48 C0,8.86587012 2.16,12.9158701 6.48,18.63 Z" id="Oval-9" stroke="#7C8495" stroke-width="1.62" fill="#F25C62"></path>
                            <circle id="Oval-2" stroke="none" fill="#CA4248" cx="6.48" cy="6.48" r="2.43"></circle>
                        </g>
                    </g>
                    <g id="Group-2" mask="url(#mask-2)">
                        <g transform="translate(134.460000, 144.990000)">
                            <path d="M6.48,18.63 C10.8,12.9158701 12.96,8.86587012 12.96,6.48 C12.96,2.90119482 10.0588052,0 6.48,0 C2.90119482,0 0,2.90119482 0,6.48 C0,8.86587012 2.16,12.9158701 6.48,18.63 Z" id="Oval-9" stroke="#7C8495" stroke-width="1.62" fill="#F25C62"></path>
                            <circle id="Oval-2" stroke="none" fill="#CA4248" cx="6.48" cy="6.48" r="2.43"></circle>
                        </g>
                    </g>
                    <g id="Group-2" mask="url(#mask-2)">
                        <g transform="translate(100.440000, 112.590000)">
                            <path d="M6.48,18.63 C10.8,12.9158701 12.96,8.86587012 12.96,6.48 C12.96,2.90119482 10.0588052,0 6.48,0 C2.90119482,0 0,2.90119482 0,6.48 C0,8.86587012 2.16,12.9158701 6.48,18.63 Z" id="Oval-9" stroke="#7C8495" stroke-width="1.62" fill="#F25C62"></path>
                            <circle id="Oval-2" stroke="none" fill="#CA4248" cx="6.48" cy="6.48" r="2.43"></circle>
                        </g>
                    </g>
                    <g id="Group-2" mask="url(#mask-2)">
                        <g transform="translate(180.630000, 112.590000)">
                            <path d="M6.48,18.63 C10.8,12.9158701 12.96,8.86587012 12.96,6.48 C12.96,2.90119482 10.0588052,0 6.48,0 C2.90119482,0 0,2.90119482 0,6.48 C0,8.86587012 2.16,12.9158701 6.48,18.63 Z" id="Oval-9" stroke="#7C8495" stroke-width="1.62" fill="#F25C62"></path>
                            <circle id="Oval-2" stroke="none" fill="#CA4248" cx="6.48" cy="6.48" r="2.43"></circle>
                        </g>
                    </g>
                    <g id="Group-2" mask="url(#mask-2)">
                        <g transform="translate(180.630000, 145.800000)">
                            <path d="M6.48,18.63 C10.8,12.9158701 12.96,8.86587012 12.96,6.48 C12.96,2.90119482 10.0588052,0 6.48,0 C2.90119482,0 0,2.90119482 0,6.48 C0,8.86587012 2.16,12.9158701 6.48,18.63 Z" id="Oval-9" stroke="#7C8495" stroke-width="1.62" fill="#F25C62"></path>
                            <circle id="Oval-2" stroke="none" fill="#CA4248" cx="6.48" cy="6.48" r="2.43"></circle>
                        </g>
                    </g>
                </g>
            </g>
        </g>
    </g>
</svg>
