<?xml version="1.0" encoding="UTF-8"?>
<svg width="239px" height="60px" viewBox="0 0 239 60" version="1.1" xmlns="http://www.w3.org/2000/svg" xmlns:xlink="http://www.w3.org/1999/xlink">
    <!-- Generator: Sketch 47.1 (45422) - http://www.bohemiancoding.com/sketch -->
    <title>login-btn@3x</title>
    <desc>Created with Sketch.</desc>
    <defs>
        <rect id="path-1" x="0" y="0" width="218.37816" height="39.6396" rx="2.88288"></rect>
        <filter x="-7.8%" y="-32.8%" width="115.6%" height="185.8%" filterUnits="objectBoundingBox" id="filter-2">
            <feOffset dx="0" dy="4" in="SourceAlpha" result="shadowOffsetOuter1"></feOffset>
            <feGaussianBlur stdDeviation="5" in="shadowOffsetOuter1" result="shadowBlurOuter1"></feGaussianBlur>
            <feColorMatrix values="0 0 0 0 0   0 0 0 0 0   0 0 0 0 0  0 0 0 0.0622735507 0" type="matrix" in="shadowBlurOuter1"></feColorMatrix>
        </filter>
    </defs>
    <g id="wire-frame" stroke="none" stroke-width="1" fill="none" fill-rule="evenodd">
        <g id="login-btn" transform="translate(10.000000, 6.000000)">
            <g id="bg">
                <use fill="black" fill-opacity="1" filter="url(#filter-2)" xlink:href="#path-1"></use>
                <use fill="#3B5998" fill-rule="evenodd" xlink:href="#path-1"></use>
            </g>
            <g id="Group" transform="translate(17.434560, 10.501920)" fill="#FFFFFF">
                <text id="Sign-in-with-faceboo" font-family="SFUIDisplay-Medium, SF UI Display" font-size="12.97296" font-weight="400" letter-spacing="0.622702056">
                    <tspan x="36.894" y="13.716">Sign in with facebook</tspan>
                </text>
                <g id="fb" transform="translate(-0.000000, -0.000000)">
                    <path d="M6.75330592,19.49376 L6.75330592,11.8439245 L9.83920563,11.8439245 L10.1640372,8.17658735 L6.75330592,8.17658735 C6.59952612,6.24020083 6.7078033,5.07332083 7.07813746,4.67594735 C7.44847163,4.27857387 8.53124346,4.16744244 10.326453,4.34255307 L10.326453,1.00861021 C8.62456413,0.755499454 7.32523793,0.755499454 6.42847437,1.00861021 C5.08332902,1.38827634 4.3170693,1.81896 3.6674062,2.98584 C3.23429746,3.76376 3.07188169,5.54957483 3.18015887,8.34328449 L0.25667493,8.34328449 L0.0942591549,11.6772274 L3.18015887,11.6772274 L3.18015887,19.49376 L6.75330592,19.49376 Z" id="Path-2"></path>
                </g>
            </g>
        </g>
    </g>
</svg>