<?xml version="1.0" encoding="UTF-8"?>
<svg width="375px" height="115px" viewBox="0 0 375 115" version="1.1" xmlns="http://www.w3.org/2000/svg" xmlns:xlink="http://www.w3.org/1999/xlink">
    <!-- Generator: Sketch 47.1 (45422) - http://www.bohemiancoding.com/sketch -->
    <title>mountain</title>
    <desc>Created with Sketch.</desc>
    <defs></defs>
    <g id="Screens" stroke="none" stroke-width="1" fill="none" fill-rule="evenodd">
        <g id="Launch-Screen" transform="translate(0.000000, -542.000000)" fill="#FFFFFF">
            <path d="M24.0861113,620.48658 C29.58636,615.820698 33.1544174,613.295343 34.7902835,612.910514 C35.0521058,613.004811 45.8783603,607.253657 51.0414386,605.492625 C53.0222619,605.268995 61.3259966,603.926292 62.2997441,605.492625 C62.3158247,605.518491 64.5563354,602.170906 69.371312,601.379398 C73.2771313,600.844375 80.133141,597.140745 88.7399688,596.001999 C88.7495142,596.035945 95.9965411,593.272928 100.901116,592.179558 C102.08155,591.916405 108.233428,583.50763 109.074969,583.450545 C109.942439,583.391701 115.199014,588.088381 116.309124,590.16561 C116.689788,591.039978 117.297134,589.77007 122.430025,595.348054 C123.789819,596.825762 123.507601,594.838268 137.49292,588.55227 C138.162811,589.412968 138.431606,590.814396 138.428055,592.511643 C138.427321,592.862463 146.861432,594.59589 150.426979,596.001999 C150.859889,596.172722 156.084317,600.468101 160.642352,604.340386 C160.96159,604.611595 172.028255,601.142908 177.190151,599.127035 C178.669113,598.549456 188.765121,580.51342 190.708055,580.374938 C191.089095,580.585539 194.73356,584.312429 199.642715,589.347922 C200.104466,589.821556 207.747297,591.689729 209.469457,593.319133 C209.575113,593.419098 211.804811,593.247666 213.997687,592.179558 C217.105156,589.347922 221.438449,587.620734 221.4869,588.02037 C221.502802,588.151538 225.86615,587.847848 229.222423,588.133638 C230.189909,588.21602 239.193545,576.705013 241.080781,575.525075 C241.39113,575.619716 241.635034,577.30178 241.675938,579.289197 C241.688235,579.886651 262.760056,558.862786 272.360261,549.860845 C274.98798,550.573359 276.845825,553.442849 278.496504,556.067249 C278.119545,556.208823 297.251772,575.621784 296.0012,576.699324 C297.529515,577.849903 300.692027,583.877091 305.488734,594.78089 C311.186238,594.953262 314.979399,595.142317 316.868219,595.348054 C317.246476,595.389256 324.135151,600.095094 328.504342,603.272687 C329.764882,604.189444 343.073086,603.826757 343.697357,604.340386 C343.966237,604.711823 349.189534,606.254893 349.508967,608.38706 C349.521488,608.470636 354.710687,606.335655 357.175065,606.335655 C355.573136,612.910514 396.161216,640.007201 396.161216,641.289296 C395.768469,642.493358 356.089318,613.762685 355.573136,614.080769 C354.228177,614.909567 346.908991,613.758265 345.824255,614.756281 C344.04558,616.392759 343.633188,618.847302 341.540681,620.48658 C339.126261,622.378046 336.94909,623.909463 335.041427,624.838907 C327.386357,628.173331 318.541686,634.004557 318.147557,632.447531 C318.066864,632.128749 334.758891,622.581255 335.041427,621.869838 C339.745748,612.056974 343.129882,612.868084 342.665615,612.910514 C342.106338,612.961627 338.137988,605.937172 337.526335,605.975767 C332.112843,606.317347 325.119357,606.20755 324.889995,606.335655 C322.534801,604.340386 314.064306,596.897222 314.012871,596.942851 C313.649473,596.942851 302.543231,597.893982 302.443686,598.006224 C302.180504,598.302977 294.215823,577.749081 293.835216,577.458295 C277.436525,564.929597 270.836303,559.787852 269.727802,560.737222 C259.816159,569.225994 242.897512,584.296767 242.71155,584.810869 C239.060808,586.690046 230.315015,593.138832 230.134243,593.319133 C229.982507,593.470474 228.500155,593.319133 225.030978,591.865492 C222.354261,591.759234 220.077308,592.222644 220.084154,591.865492 C220.096433,591.224922 216.986657,592.714994 216.24758,593.319133 C212.931741,596.02958 210.068226,597.693357 210.135137,597.764725 C210.229826,597.865722 192.254222,616.716459 191.827504,617.694528 C191.039,617.694528 190.028681,617.960689 188.958996,617.694528 C187.730371,616.499719 183.96479,615.808621 181.558908,616.121953 C180.853985,615.88751 178.251445,617.694528 166.326863,624.838907 C178.424708,612.056974 180.741843,613.049775 181.008201,612.056974 C181.113127,611.665882 193.073614,612.492483 193.258837,612.056974 C194.191395,609.86428 195.720165,607.815837 196.731374,606.335655 C200.938664,600.177141 205.973642,596.849197 205.945575,596.942851 C205.446396,598.572377 190.584443,584.302739 190.352903,584.810869 C187.928024,590.132451 180.417173,599.174677 179.189579,600.261908 C178.089581,601.236133 174.255205,602.882357 173.368185,603.198691 C168.636892,604.885996 162.727949,606.123025 162.97449,606.335655 C165.571878,608.575784 167.528962,610.334163 167.507536,610.495745 C159.093851,605.492625 150.00002,598.477989 149.721914,598.572377 C148.376895,597.790222 139.274633,596.037282 133.747534,594.78089 C130.975287,595.763629 127.869178,597.095224 127.164162,599.441838 C132.281939,603.811682 134.83811,606.666649 135.514166,608.38706 C139.030011,609.032607 140.728199,609.026493 140.62154,609.469135 C140.521849,609.882862 143.287954,611.408345 150.426979,620.48658 C149.0532,619.620201 135.018676,612.056974 131.47064,609.990747 C127.45664,605.777484 116.285857,595.529664 112.072097,591.865492 C109.747447,592.213321 107.222801,592.111439 107.236417,592.179558 C98.5233243,597.32134 89.2717648,598.166252 88.7399688,598.572377 C87.9101046,599.206133 78.61814,601.765802 78.0126863,602.170906 C73.3743719,605.274366 65.6362106,609.401324 64.5563354,610.495745 C61.7218018,613.368461 57.7335554,615.035939 51.0414386,619.620201 C42.8505294,625.231172 37.0325315,631.598321 34.7902835,630.88621 C32.4022203,631.859924 54.2909342,611.476537 54.2922858,612.056974 C53.3175452,610.367355 39.6121847,614.428246 38.597832,615.662179 C27.9316633,621.246652 26.5436218,624.119538 26.205068,624.416356 C22.6416508,627.540494 12.51762,630.904627 10.5147226,631.859924 C-12.1004925,644.058048 -21.7333402,647.373621 -19.9538518,645.778552 C-18.6275126,643.835186 -3.94752496,635.404528 24.0861113,620.48658 Z M59.8317037,617.533249 C61.788251,615.847778 77.269699,605.889532 79.4408569,606.687633 C79.6563539,606.766848 78.5361107,611.093435 77.1336382,613.510581 C76.8495492,614.000206 81.3074372,612.8291 86.4324023,612.206514 C87.3620525,611.737241 105.684581,594.942847 106.632104,595.243946 C107.731513,596.815997 98.1426737,606.462869 93.5129461,611.419265 C91.7788602,613.093201 91.2423186,613.175994 90.8410014,613.510581 C77.9457863,616.723635 72.6423503,616.326508 72.3591353,617.100323 C71.2684217,618.116119 69.1424918,618.67734 65.9813459,618.783988 C63.9910855,620.584027 62.6536634,621.904538 61.9690793,622.745522 C56.6028474,630.859021 52.2411526,637.558815 48.883995,642.844904 C52.3373571,632.526754 55.9865933,624.089536 59.8317037,617.533249 Z M202.853681,612.763785 C211.483381,605.103558 217.685174,602.364096 224.317673,599.269564 C229.900643,595.874156 233.222759,594.578225 238.140327,591.316855 C238.96774,590.541992 238.530215,594.617941 237.362743,600.262663 C237.449245,600.725157 241.340636,599.282668 242.930554,598.923817 C243.836721,599.455914 247.280424,591.542055 248.796949,585.147232 C249.837722,582.508387 251.268503,580.421788 251.385781,580.581818 C251.453915,580.674791 253.544685,580.575638 256.142015,580.581818 C256.191859,580.667445 267.758536,565.926066 269.594127,565.950015 C269.350386,568.86641 266.162824,582.715615 263.923574,584.273472 C262.63109,584.273472 253.887484,583.944315 253.829758,584.273472 C253.206966,587.824688 249.698199,593.866752 249.302586,595.381266 C247.607433,601.870781 245.424546,602.568135 245.41818,602.825219 C245.395777,603.730066 237.496335,605.206854 237.154342,606.259122 C236.045862,609.669763 233.402888,617.40549 229.225419,629.466302 C231.775978,611.895554 232.521886,603.200663 231.463144,603.381629 C215.859071,609.081755 218.14622,608.610496 204.633086,615.962655 C200.905627,620.918547 197.806437,625.419763 195.335518,629.466302 C196.333051,624.857039 198.839105,619.289534 202.853681,612.763785 Z" id="mountain" transform="translate(188.000000, 598.006224) rotate(-5.000000) translate(-188.000000, -598.006224) "></path>
        </g>
    </g>
</svg>